{
    "patcher": {
        "fileversion": 1,
        "appversion": {
            "major": 9,
            "minor": 1,
            "revision": 2,
            "architecture": "x64",
            "modernui": 1
        },
        "classnamespace": "box",
        "rect": [ 98.0, 72.0, 1089.0, 1062.0 ],
        "lefttoolbarpinned": 2,
        "toptoolbarpinned": 2,
        "righttoolbarpinned": 2,
        "bottomtoolbarpinned": 2,
        "toolbars_unpinned_last_save": 15,
        "boxes": [
            {
                "box": {
                    "id": "obj-30",
                    "maxclass": "comment",
                    "numinlets": 1,
                    "numoutlets": 0,
                    "patching_rect": [ 901.0, 292.0, 21.0, 20.0 ],
                    "text": "11"
                }
            },
            {
                "box": {
                    "id": "obj-29",
                    "maxclass": "comment",
                    "numinlets": 1,
                    "numoutlets": 0,
                    "patching_rect": [ 822.0, 292.0, 22.0, 20.0 ],
                    "text": "10"
                }
            },
            {
                "box": {
                    "id": "obj-28",
                    "maxclass": "comment",
                    "numinlets": 1,
                    "numoutlets": 0,
                    "patching_rect": [ 743.0, 292.0, 19.0, 20.0 ],
                    "text": "9"
                }
            },
            {
                "box": {
                    "id": "obj-27",
                    "maxclass": "comment",
                    "numinlets": 1,
                    "numoutlets": 0,
                    "patching_rect": [ 663.0, 292.0, 19.0, 20.0 ],
                    "text": "8"
                }
            },
            {
                "box": {
                    "id": "obj-26",
                    "maxclass": "comment",
                    "numinlets": 1,
                    "numoutlets": 0,
                    "patching_rect": [ 584.0, 292.0, 19.0, 20.0 ],
                    "text": "7"
                }
            },
            {
                "box": {
                    "id": "obj-25",
                    "maxclass": "comment",
                    "numinlets": 1,
                    "numoutlets": 0,
                    "patching_rect": [ 505.0, 292.0, 19.0, 20.0 ],
                    "text": "6"
                }
            },
            {
                "box": {
                    "id": "obj-24",
                    "maxclass": "comment",
                    "numinlets": 1,
                    "numoutlets": 0,
                    "patching_rect": [ 426.0, 292.0, 19.0, 20.0 ],
                    "text": "5"
                }
            },
            {
                "box": {
                    "id": "obj-23",
                    "maxclass": "comment",
                    "numinlets": 1,
                    "numoutlets": 0,
                    "patching_rect": [ 347.0, 292.0, 19.0, 20.0 ],
                    "text": "4"
                }
            },
            {
                "box": {
                    "id": "obj-22",
                    "maxclass": "comment",
                    "numinlets": 1,
                    "numoutlets": 0,
                    "patching_rect": [ 267.0, 292.0, 19.0, 20.0 ],
                    "text": "3"
                }
            },
            {
                "box": {
                    "id": "obj-21",
                    "maxclass": "comment",
                    "numinlets": 1,
                    "numoutlets": 0,
                    "patching_rect": [ 188.0, 292.0, 19.0, 20.0 ],
                    "text": "2"
                }
            },
            {
                "box": {
                    "id": "obj-20",
                    "maxclass": "comment",
                    "numinlets": 1,
                    "numoutlets": 0,
                    "patching_rect": [ 109.0, 292.0, 19.0, 20.0 ],
                    "text": "1"
                }
            },
            {
                "box": {
                    "fontsize": 27.0899012319002,
                    "id": "obj-3",
                    "linecount": 2,
                    "maxclass": "comment",
                    "numinlets": 1,
                    "numoutlets": 0,
                    "patching_rect": [ 25.0, 12.0, 695.0, 67.0 ],
                    "text": "MaxMSP patche to retrieve OSC messages from Python Python is reading sensors from X-imu3 sensors by X-io"
                }
            },
            {
                "box": {
                    "format": 6,
                    "id": "obj-134",
                    "maxclass": "flonum",
                    "numinlets": 1,
                    "numoutlets": 2,
                    "outlettype": [ "", "bang" ],
                    "parameter_enable": 0,
                    "patching_rect": [ 126.0, 957.0, 49.523815870285034, 22.0 ]
                }
            },
            {
                "box": {
                    "format": 6,
                    "id": "obj-135",
                    "maxclass": "flonum",
                    "numinlets": 1,
                    "numoutlets": 2,
                    "outlettype": [ "", "bang" ],
                    "parameter_enable": 0,
                    "patching_rect": [ 234.0, 957.0, 49.523815870285034, 22.0 ]
                }
            },
            {
                "box": {
                    "format": 6,
                    "id": "obj-136",
                    "maxclass": "flonum",
                    "numinlets": 1,
                    "numoutlets": 2,
                    "outlettype": [ "", "bang" ],
                    "parameter_enable": 0,
                    "patching_rect": [ 180.0, 957.0, 49.523815870285034, 22.0 ]
                }
            },
            {
                "box": {
                    "id": "obj-137",
                    "maxclass": "newobj",
                    "numinlets": 1,
                    "numoutlets": 4,
                    "outlettype": [ "", "", "", "" ],
                    "patching_rect": [ 126.0, 916.0, 181.3853075504303, 22.0 ],
                    "text": "unjoin 3"
                }
            },
            {
                "box": {
                    "format": 6,
                    "id": "obj-130",
                    "maxclass": "flonum",
                    "numinlets": 1,
                    "numoutlets": 2,
                    "outlettype": [ "", "bang" ],
                    "parameter_enable": 0,
                    "patching_rect": [ 170.0, 876.0, 49.523815870285034, 22.0 ]
                }
            },
            {
                "box": {
                    "format": 6,
                    "id": "obj-131",
                    "maxclass": "flonum",
                    "numinlets": 1,
                    "numoutlets": 2,
                    "outlettype": [ "", "bang" ],
                    "parameter_enable": 0,
                    "patching_rect": [ 279.0, 876.0, 49.523815870285034, 22.0 ]
                }
            },
            {
                "box": {
                    "format": 6,
                    "id": "obj-132",
                    "maxclass": "flonum",
                    "numinlets": 1,
                    "numoutlets": 2,
                    "outlettype": [ "", "bang" ],
                    "parameter_enable": 0,
                    "patching_rect": [ 225.0, 876.0, 49.523815870285034, 22.0 ]
                }
            },
            {
                "box": {
                    "id": "obj-133",
                    "maxclass": "newobj",
                    "numinlets": 1,
                    "numoutlets": 4,
                    "outlettype": [ "", "", "", "" ],
                    "patching_rect": [ 170.0, 834.0, 181.3853075504303, 22.0 ],
                    "text": "unjoin 3"
                }
            },
            {
                "box": {
                    "id": "obj-121",
                    "maxclass": "newobj",
                    "numinlets": 1,
                    "numoutlets": 12,
                    "outlettype": [ "", "", "", "", "", "", "", "", "", "", "", "" ],
                    "patching_rect": [ 82.0, 262.0, 905.6, 22.0 ],
                    "text": "OSC-route /sensor-01 /sensor-02 /sensor-03 /sensor-04 /sensor-05 /sensor-06 /sensor-07 /sensor-08 /sensor-09 /sensor-10 /sensor-11"
                }
            },
            {
                "box": {
                    "format": 6,
                    "id": "obj-113",
                    "maxclass": "flonum",
                    "numinlets": 1,
                    "numoutlets": 2,
                    "outlettype": [ "", "bang" ],
                    "parameter_enable": 0,
                    "patching_rect": [ 682.0, 653.0, 49.523815870285034, 22.0 ]
                }
            },
            {
                "box": {
                    "format": 6,
                    "id": "obj-114",
                    "maxclass": "flonum",
                    "numinlets": 1,
                    "numoutlets": 2,
                    "outlettype": [ "", "bang" ],
                    "parameter_enable": 0,
                    "patching_rect": [ 520.0, 653.0, 49.523815870285034, 22.0 ]
                }
            },
            {
                "box": {
                    "format": 6,
                    "id": "obj-115",
                    "maxclass": "flonum",
                    "numinlets": 1,
                    "numoutlets": 2,
                    "outlettype": [ "", "bang" ],
                    "parameter_enable": 0,
                    "patching_rect": [ 628.0, 653.0, 49.523815870285034, 22.0 ]
                }
            },
            {
                "box": {
                    "format": 6,
                    "id": "obj-116",
                    "maxclass": "flonum",
                    "numinlets": 1,
                    "numoutlets": 2,
                    "outlettype": [ "", "bang" ],
                    "parameter_enable": 0,
                    "patching_rect": [ 574.0, 653.0, 49.523815870285034, 22.0 ]
                }
            },
            {
                "box": {
                    "format": 6,
                    "id": "obj-112",
                    "maxclass": "flonum",
                    "numinlets": 1,
                    "numoutlets": 2,
                    "outlettype": [ "", "bang" ],
                    "parameter_enable": 0,
                    "patching_rect": [ 466.0, 653.0, 49.523815870285034, 22.0 ]
                }
            },
            {
                "box": {
                    "format": 6,
                    "id": "obj-106",
                    "maxclass": "flonum",
                    "numinlets": 1,
                    "numoutlets": 2,
                    "outlettype": [ "", "bang" ],
                    "parameter_enable": 0,
                    "patching_rect": [ 303.0, 653.0, 49.523815870285034, 22.0 ]
                }
            },
            {
                "box": {
                    "format": 6,
                    "id": "obj-107",
                    "maxclass": "flonum",
                    "numinlets": 1,
                    "numoutlets": 2,
                    "outlettype": [ "", "bang" ],
                    "parameter_enable": 0,
                    "patching_rect": [ 412.0, 653.0, 49.523815870285034, 22.0 ]
                }
            },
            {
                "box": {
                    "format": 6,
                    "id": "obj-108",
                    "maxclass": "flonum",
                    "numinlets": 1,
                    "numoutlets": 2,
                    "outlettype": [ "", "bang" ],
                    "parameter_enable": 0,
                    "patching_rect": [ 358.0, 653.0, 49.523815870285034, 22.0 ]
                }
            },
            {
                "box": {
                    "id": "obj-109",
                    "maxclass": "newobj",
                    "numinlets": 1,
                    "numoutlets": 9,
                    "outlettype": [ "", "", "", "", "", "", "", "", "" ],
                    "patching_rect": [ 303.0, 611.0, 452.02748680114746, 22.0 ],
                    "text": "unjoin 8"
                }
            },
            {
                "box": {
                    "format": 6,
                    "id": "obj-98",
                    "maxclass": "flonum",
                    "numinlets": 1,
                    "numoutlets": 2,
                    "outlettype": [ "", "bang" ],
                    "parameter_enable": 0,
                    "patching_rect": [ 259.0, 726.0, 49.523815870285034, 22.0 ]
                }
            },
            {
                "box": {
                    "format": 6,
                    "id": "obj-99",
                    "maxclass": "flonum",
                    "numinlets": 1,
                    "numoutlets": 2,
                    "outlettype": [ "", "bang" ],
                    "parameter_enable": 0,
                    "patching_rect": [ 367.0, 726.0, 49.523815870285034, 22.0 ]
                }
            },
            {
                "box": {
                    "format": 6,
                    "id": "obj-100",
                    "maxclass": "flonum",
                    "numinlets": 1,
                    "numoutlets": 2,
                    "outlettype": [ "", "bang" ],
                    "parameter_enable": 0,
                    "patching_rect": [ 313.0, 726.0, 49.523815870285034, 22.0 ]
                }
            },
            {
                "box": {
                    "id": "obj-101",
                    "maxclass": "newobj",
                    "numinlets": 1,
                    "numoutlets": 4,
                    "outlettype": [ "", "", "", "" ],
                    "patching_rect": [ 259.0, 685.0, 181.3853075504303, 22.0 ],
                    "text": "unjoin 3"
                }
            },
            {
                "box": {
                    "format": 6,
                    "id": "obj-97",
                    "maxclass": "flonum",
                    "numinlets": 1,
                    "numoutlets": 2,
                    "outlettype": [ "", "bang" ],
                    "parameter_enable": 0,
                    "patching_rect": [ 215.0, 800.0, 49.523815870285034, 22.0 ]
                }
            },
            {
                "box": {
                    "format": 6,
                    "id": "obj-94",
                    "maxclass": "flonum",
                    "numinlets": 1,
                    "numoutlets": 2,
                    "outlettype": [ "", "bang" ],
                    "parameter_enable": 0,
                    "patching_rect": [ 323.0, 800.0, 49.523815870285034, 22.0 ]
                }
            },
            {
                "box": {
                    "format": 6,
                    "id": "obj-95",
                    "maxclass": "flonum",
                    "numinlets": 1,
                    "numoutlets": 2,
                    "outlettype": [ "", "bang" ],
                    "parameter_enable": 0,
                    "patching_rect": [ 269.0, 800.0, 49.523815870285034, 22.0 ]
                }
            },
            {
                "box": {
                    "id": "obj-96",
                    "maxclass": "newobj",
                    "numinlets": 1,
                    "numoutlets": 4,
                    "outlettype": [ "", "", "", "" ],
                    "patching_rect": [ 215.0, 759.0, 181.3853075504303, 22.0 ],
                    "text": "unjoin 3"
                }
            },
            {
                "box": {
                    "bubble": 1,
                    "bubble_bgcolor": [ 0.235, 0.235, 0.235, 0.0 ],
                    "bubblepoint": 0.0,
                    "bubbleside": 2,
                    "id": "obj-90",
                    "linecount": 7,
                    "maxclass": "comment",
                    "numinlets": 1,
                    "numoutlets": 0,
                    "patching_rect": [ 146.0, 141.0, 516.0, 119.0 ],
                    "text": "/sensor-XX - where XX = is the sensor number given by the last 2 digits of the incoming port\n/timestamp -> [Value]\n/gyro -> [X, Y, Z]\n/accel-> [X, Y, Z]\n/euler-> [Roll, Pitch, Yaw]\n/magneto-> [X, Y, Z]\n/serial-> [1...8 values]"
                }
            },
            {
                "box": {
                    "id": "obj-13",
                    "maxclass": "message",
                    "numinlets": 2,
                    "numoutlets": 1,
                    "outlettype": [ "" ],
                    "patching_rect": [ 12.0, 611.0, 89.0, 22.0 ],
                    "text": "511094144."
                }
            },
            {
                "box": {
                    "id": "obj-12",
                    "maxclass": "newobj",
                    "numinlets": 7,
                    "numoutlets": 7,
                    "outlettype": [ "", "", "", "", "", "", "" ],
                    "patching_rect": [ 82.0, 583.0, 285.0, 22.0 ],
                    "text": "route /timestamp /gyro /accel /euler /mag /serial"
                }
            },
            {
                "box": {
                    "id": "obj-10",
                    "maxclass": "toggle",
                    "numinlets": 1,
                    "numoutlets": 1,
                    "outlettype": [ "int" ],
                    "parameter_enable": 0,
                    "patching_rect": [ 82.0, 115.0, 24.0, 24.0 ]
                }
            },
            {
                "box": {
                    "id": "obj-8",
                    "maxclass": "newobj",
                    "numinlets": 2,
                    "numoutlets": 1,
                    "outlettype": [ "" ],
                    "patching_rect": [ 82.0, 148.0, 52.0, 22.0 ],
                    "text": "gate 1 0"
                }
            },
            {
                "box": {
                    "id": "obj-2",
                    "maxclass": "newobj",
                    "numinlets": 1,
                    "numoutlets": 1,
                    "outlettype": [ "" ],
                    "patching_rect": [ 115.0, 116.0, 97.0, 22.0 ],
                    "text": "udpreceive 9999"
                }
            }
        ],
        "lines": [
            {
                "patchline": {
                    "destination": [ "obj-8", 0 ],
                    "source": [ "obj-10", 0 ]
                }
            },
            {
                "patchline": {
                    "destination": [ "obj-100", 0 ],
                    "source": [ "obj-101", 1 ]
                }
            },
            {
                "patchline": {
                    "destination": [ "obj-98", 0 ],
                    "source": [ "obj-101", 0 ]
                }
            },
            {
                "patchline": {
                    "destination": [ "obj-99", 0 ],
                    "source": [ "obj-101", 2 ]
                }
            },
            {
                "patchline": {
                    "destination": [ "obj-106", 0 ],
                    "source": [ "obj-109", 0 ]
                }
            },
            {
                "patchline": {
                    "destination": [ "obj-107", 0 ],
                    "source": [ "obj-109", 2 ]
                }
            },
            {
                "patchline": {
                    "destination": [ "obj-108", 0 ],
                    "source": [ "obj-109", 1 ]
                }
            },
            {
                "patchline": {
                    "destination": [ "obj-112", 0 ],
                    "source": [ "obj-109", 3 ]
                }
            },
            {
                "patchline": {
                    "destination": [ "obj-113", 0 ],
                    "source": [ "obj-109", 7 ]
                }
            },
            {
                "patchline": {
                    "destination": [ "obj-114", 0 ],
                    "source": [ "obj-109", 4 ]
                }
            },
            {
                "patchline": {
                    "destination": [ "obj-115", 0 ],
                    "source": [ "obj-109", 6 ]
                }
            },
            {
                "patchline": {
                    "destination": [ "obj-116", 0 ],
                    "source": [ "obj-109", 5 ]
                }
            },
            {
                "patchline": {
                    "destination": [ "obj-101", 0 ],
                    "source": [ "obj-12", 4 ]
                }
            },
            {
                "patchline": {
                    "destination": [ "obj-109", 0 ],
                    "source": [ "obj-12", 5 ]
                }
            },
            {
                "patchline": {
                    "destination": [ "obj-13", 1 ],
                    "source": [ "obj-12", 0 ]
                }
            },
            {
                "patchline": {
                    "destination": [ "obj-133", 0 ],
                    "source": [ "obj-12", 2 ]
                }
            },
            {
                "patchline": {
                    "destination": [ "obj-137", 0 ],
                    "source": [ "obj-12", 1 ]
                }
            },
            {
                "patchline": {
                    "destination": [ "obj-96", 0 ],
                    "source": [ "obj-12", 3 ]
                }
            },
            {
                "patchline": {
                    "destination": [ "obj-12", 0 ],
                    "source": [ "obj-121", 5 ]
                }
            },
            {
                "patchline": {
                    "destination": [ "obj-130", 0 ],
                    "source": [ "obj-133", 0 ]
                }
            },
            {
                "patchline": {
                    "destination": [ "obj-131", 0 ],
                    "source": [ "obj-133", 2 ]
                }
            },
            {
                "patchline": {
                    "destination": [ "obj-132", 0 ],
                    "source": [ "obj-133", 1 ]
                }
            },
            {
                "patchline": {
                    "destination": [ "obj-134", 0 ],
                    "source": [ "obj-137", 0 ]
                }
            },
            {
                "patchline": {
                    "destination": [ "obj-135", 0 ],
                    "source": [ "obj-137", 2 ]
                }
            },
            {
                "patchline": {
                    "destination": [ "obj-136", 0 ],
                    "source": [ "obj-137", 1 ]
                }
            },
            {
                "patchline": {
                    "destination": [ "obj-8", 1 ],
                    "source": [ "obj-2", 0 ]
                }
            },
            {
                "patchline": {
                    "destination": [ "obj-121", 0 ],
                    "source": [ "obj-8", 0 ]
                }
            },
            {
                "patchline": {
                    "destination": [ "obj-94", 0 ],
                    "source": [ "obj-96", 2 ]
                }
            },
            {
                "patchline": {
                    "destination": [ "obj-95", 0 ],
                    "source": [ "obj-96", 1 ]
                }
            },
            {
                "patchline": {
                    "destination": [ "obj-97", 0 ],
                    "source": [ "obj-96", 0 ]
                }
            }
        ],
        "autosave": 0
    }
}