{
    "patcher": {
        "fileversion": 1,
        "appversion": {
            "major": 9,
            "minor": 1,
            "revision": 2,
            "architecture": "x64",
            "modernui": 1
        },
        "classnamespace": "box",
        "rect": [ 552.0, 389.0, 916.0, 663.0 ],
        "lefttoolbarpinned": 2,
        "toptoolbarpinned": 2,
        "righttoolbarpinned": 2,
        "bottomtoolbarpinned": 2,
        "toolbars_unpinned_last_save": 15,
        "boxes": [
            {
                "box": {
                    "id": "obj-7",
                    "maxclass": "comment",
                    "numinlets": 1,
                    "numoutlets": 0,
                    "patching_rect": [ 268.0, 288.0, 76.0, 20.0 ],
                    "presentation_linecount": 4,
                    "text": "performance"
                }
            },
            {
                "box": {
                    "id": "obj-22",
                    "maxclass": "newobj",
                    "numinlets": 1,
                    "numoutlets": 2,
                    "outlettype": [ "bang", "bang" ],
                    "patching_rect": [ 49.0, 185.0, 238.0, 22.0 ],
                    "text": "t b b"
                }
            },
            {
                "box": {
                    "format": 6,
                    "id": "obj-15",
                    "maxclass": "flonum",
                    "numinlets": 1,
                    "numoutlets": 2,
                    "outlettype": [ "", "bang" ],
                    "parameter_enable": 0,
                    "patching_rect": [ 268.0, 264.0, 50.0, 22.0 ]
                }
            },
            {
                "box": {
                    "id": "obj-11",
                    "maxclass": "newobj",
                    "numinlets": 2,
                    "numoutlets": 2,
                    "outlettype": [ "float", "" ],
                    "patching_rect": [ 268.0, 229.0, 57.0, 22.0 ],
                    "text": "timer"
                }
            },
            {
                "box": {
                    "id": "obj-10",
                    "maxclass": "multislider",
                    "numinlets": 1,
                    "numoutlets": 2,
                    "outlettype": [ "", "" ],
                    "parameter_enable": 0,
                    "patching_rect": [ 519.0, 433.0, 337.0, 199.0 ],
                    "setminmax": [ 0.0, 1.0 ],
                    "setstyle": 3,
                    "size": 5
                }
            },
            {
                "box": {
                    "id": "obj-9",
                    "maxclass": "multislider",
                    "numinlets": 1,
                    "numoutlets": 2,
                    "outlettype": [ "", "" ],
                    "parameter_enable": 0,
                    "patching_rect": [ 170.0, 433.0, 337.0, 199.0 ],
                    "setminmax": [ 0.0, 1.0 ],
                    "setstyle": 3,
                    "size": 3
                }
            },
            {
                "box": {
                    "id": "obj-8",
                    "maxclass": "toggle",
                    "numinlets": 1,
                    "numoutlets": 1,
                    "outlettype": [ "int" ],
                    "parameter_enable": 0,
                    "patching_rect": [ 49.0, 92.0, 24.0, 24.0 ]
                }
            },
            {
                "box": {
                    "id": "obj-6",
                    "maxclass": "newobj",
                    "numinlets": 2,
                    "numoutlets": 1,
                    "outlettype": [ "bang" ],
                    "patching_rect": [ 49.0, 118.0, 56.0, 22.0 ],
                    "text": "metro 10"
                }
            },
            {
                "box": {
                    "id": "obj-5",
                    "maxclass": "message",
                    "numinlets": 2,
                    "numoutlets": 1,
                    "outlettype": [ "" ],
                    "patching_rect": [ 72.0, 472.0, 39.0, 22.0 ],
                    "text": "/reset"
                }
            },
            {
                "box": {
                    "fontsize": 18.69671247946014,
                    "id": "obj-4",
                    "linecount": 2,
                    "maxclass": "comment",
                    "numinlets": 1,
                    "numoutlets": 0,
                    "patching_rect": [ 49.0, 21.0, 715.0, 48.0 ],
                    "text": "this example demonstrates how to to send a list values from sensors and retrieve the min/max/average/standard deviation/total magnitude"
                }
            },
            {
                "box": {
                    "id": "obj-43",
                    "linecount": 4,
                    "maxclass": "comment",
                    "numinlets": 1,
                    "numoutlets": 0,
                    "patching_rect": [ 731.0, 337.0, 107.0, 60.0 ],
                    "text": "total magnitude (mean magnitude of the 3 values added together)"
                }
            },
            {
                "box": {
                    "format": 6,
                    "id": "obj-42",
                    "maxclass": "flonum",
                    "numinlets": 1,
                    "numoutlets": 2,
                    "outlettype": [ "", "bang" ],
                    "parameter_enable": 0,
                    "patching_rect": [ 679.0, 336.0, 50.0, 22.0 ]
                }
            },
            {
                "box": {
                    "id": "obj-41",
                    "maxclass": "message",
                    "numinlets": 2,
                    "numoutlets": 1,
                    "outlettype": [ "" ],
                    "patching_rect": [ 78.0, 400.0, 172.0, 22.0 ],
                    "text": "0.710772 0.702111 0.635922"
                }
            },
            {
                "box": {
                    "id": "obj-38",
                    "linecount": 4,
                    "maxclass": "comment",
                    "numinlets": 1,
                    "numoutlets": 0,
                    "patching_rect": [ 611.0, 360.0, 110.0, 60.0 ],
                    "text": "standard deviation (mean deviation from previous situation)"
                }
            },
            {
                "box": {
                    "id": "obj-37",
                    "maxclass": "comment",
                    "numinlets": 1,
                    "numoutlets": 0,
                    "patching_rect": [ 544.0, 360.0, 31.0, 20.0 ],
                    "text": "avg"
                }
            },
            {
                "box": {
                    "id": "obj-36",
                    "maxclass": "comment",
                    "numinlets": 1,
                    "numoutlets": 0,
                    "patching_rect": [ 477.0, 360.0, 31.0, 20.0 ],
                    "text": "max"
                }
            },
            {
                "box": {
                    "id": "obj-35",
                    "maxclass": "comment",
                    "numinlets": 1,
                    "numoutlets": 0,
                    "patching_rect": [ 409.0, 360.0, 28.0, 20.0 ],
                    "text": "min"
                }
            },
            {
                "box": {
                    "format": 6,
                    "id": "obj-33",
                    "maxclass": "flonum",
                    "numinlets": 1,
                    "numoutlets": 2,
                    "outlettype": [ "", "bang" ],
                    "parameter_enable": 0,
                    "patching_rect": [ 612.0, 336.0, 50.0, 22.0 ]
                }
            },
            {
                "box": {
                    "format": 6,
                    "id": "obj-32",
                    "maxclass": "flonum",
                    "numinlets": 1,
                    "numoutlets": 2,
                    "outlettype": [ "", "bang" ],
                    "parameter_enable": 0,
                    "patching_rect": [ 544.0, 336.0, 50.0, 22.0 ]
                }
            },
            {
                "box": {
                    "format": 6,
                    "id": "obj-31",
                    "maxclass": "flonum",
                    "numinlets": 1,
                    "numoutlets": 2,
                    "outlettype": [ "", "bang" ],
                    "parameter_enable": 0,
                    "patching_rect": [ 477.0, 336.0, 58.273383378982544, 22.0 ]
                }
            },
            {
                "box": {
                    "format": 6,
                    "id": "obj-30",
                    "maxclass": "flonum",
                    "numinlets": 1,
                    "numoutlets": 2,
                    "outlettype": [ "", "bang" ],
                    "parameter_enable": 0,
                    "patching_rect": [ 409.0, 336.0, 50.0, 22.0 ]
                }
            },
            {
                "box": {
                    "id": "obj-28",
                    "maxclass": "newobj",
                    "numinlets": 1,
                    "numoutlets": 5,
                    "outlettype": [ "float", "float", "float", "float", "float" ],
                    "patching_rect": [ 409.0, 300.0, 289.50360679626465, 22.0 ],
                    "text": "unpack f f f f f"
                }
            },
            {
                "box": {
                    "id": "obj-27",
                    "maxclass": "newobj",
                    "numinlets": 1,
                    "numoutlets": 2,
                    "outlettype": [ "bang", "" ],
                    "patching_rect": [ 306.0, 185.0, 122.0, 22.0 ],
                    "text": "t b l"
                }
            },
            {
                "box": {
                    "id": "obj-26",
                    "maxclass": "newobj",
                    "numinlets": 2,
                    "numoutlets": 2,
                    "outlettype": [ "", "" ],
                    "patching_rect": [ 409.0, 259.0, 78.0, 22.0 ],
                    "text": "route /results"
                }
            },
            {
                "box": {
                    "id": "obj-25",
                    "maxclass": "button",
                    "numinlets": 1,
                    "numoutlets": 1,
                    "outlettype": [ "bang" ],
                    "parameter_enable": 0,
                    "patching_rect": [ 66.1187059879303, 263.0, 24.0, 24.0 ]
                }
            },
            {
                "box": {
                    "id": "obj-23",
                    "maxclass": "newobj",
                    "numinlets": 2,
                    "numoutlets": 2,
                    "outlettype": [ "", "" ],
                    "patching_rect": [ 30.0, 400.0, 38.0, 22.0 ],
                    "text": "zl reg"
                }
            },
            {
                "box": {
                    "id": "obj-19",
                    "maxclass": "button",
                    "numinlets": 1,
                    "numoutlets": 1,
                    "outlettype": [ "bang" ],
                    "parameter_enable": 0,
                    "patching_rect": [ 49.0, 146.0, 24.0, 24.0 ]
                }
            },
            {
                "box": {
                    "id": "obj-16",
                    "maxclass": "newobj",
                    "numinlets": 1,
                    "numoutlets": 1,
                    "outlettype": [ "" ],
                    "patching_rect": [ 30.0, 428.0, 119.0, 22.0 ],
                    "text": "prepend /analyze/list"
                }
            },
            {
                "box": {
                    "id": "obj-14",
                    "maxclass": "newobj",
                    "numinlets": 3,
                    "numoutlets": 1,
                    "outlettype": [ "" ],
                    "patching_rect": [ 49.0, 314.0, 151.0, 22.0 ],
                    "text": "drunk 0.5 0.1 @range 0. 1."
                }
            },
            {
                "box": {
                    "id": "obj-13",
                    "maxclass": "newobj",
                    "numinlets": 2,
                    "numoutlets": 3,
                    "outlettype": [ "bang", "bang", "int" ],
                    "patching_rect": [ 49.0, 229.0, 53.237411975860596, 22.0 ],
                    "text": "uzi 3"
                }
            },
            {
                "box": {
                    "id": "obj-3",
                    "maxclass": "newobj",
                    "numinlets": 2,
                    "numoutlets": 2,
                    "outlettype": [ "", "" ],
                    "patching_rect": [ 49.0, 340.0, 81.0, 22.0 ],
                    "text": "zl.group 3"
                }
            },
            {
                "box": {
                    "id": "obj-2",
                    "maxclass": "newobj",
                    "numinlets": 1,
                    "numoutlets": 1,
                    "outlettype": [ "" ],
                    "patching_rect": [ 306.0, 147.0, 97.0, 22.0 ],
                    "text": "udpreceive 9999"
                }
            },
            {
                "box": {
                    "id": "obj-1",
                    "maxclass": "newobj",
                    "numinlets": 1,
                    "numoutlets": 0,
                    "patching_rect": [ 30.0, 531.0, 138.0, 22.0 ],
                    "text": "udpsend 127.0.0.1 8888"
                }
            }
        ],
        "lines": [
            {
                "patchline": {
                    "destination": [ "obj-15", 0 ],
                    "source": [ "obj-11", 0 ]
                }
            },
            {
                "patchline": {
                    "destination": [ "obj-14", 0 ],
                    "source": [ "obj-13", 0 ]
                }
            },
            {
                "patchline": {
                    "destination": [ "obj-25", 0 ],
                    "source": [ "obj-13", 1 ]
                }
            },
            {
                "patchline": {
                    "destination": [ "obj-3", 0 ],
                    "source": [ "obj-14", 0 ]
                }
            },
            {
                "patchline": {
                    "destination": [ "obj-1", 0 ],
                    "source": [ "obj-16", 0 ]
                }
            },
            {
                "patchline": {
                    "destination": [ "obj-22", 0 ],
                    "source": [ "obj-19", 0 ]
                }
            },
            {
                "patchline": {
                    "destination": [ "obj-27", 0 ],
                    "source": [ "obj-2", 0 ]
                }
            },
            {
                "patchline": {
                    "destination": [ "obj-11", 0 ],
                    "source": [ "obj-22", 1 ]
                }
            },
            {
                "patchline": {
                    "destination": [ "obj-13", 0 ],
                    "source": [ "obj-22", 0 ]
                }
            },
            {
                "patchline": {
                    "destination": [ "obj-16", 0 ],
                    "source": [ "obj-23", 0 ]
                }
            },
            {
                "patchline": {
                    "destination": [ "obj-23", 0 ],
                    "source": [ "obj-25", 0 ]
                }
            },
            {
                "patchline": {
                    "destination": [ "obj-10", 0 ],
                    "hidden": 1,
                    "order": 0,
                    "source": [ "obj-26", 0 ]
                }
            },
            {
                "patchline": {
                    "destination": [ "obj-28", 0 ],
                    "order": 1,
                    "source": [ "obj-26", 0 ]
                }
            },
            {
                "patchline": {
                    "destination": [ "obj-11", 1 ],
                    "source": [ "obj-27", 0 ]
                }
            },
            {
                "patchline": {
                    "destination": [ "obj-26", 0 ],
                    "source": [ "obj-27", 1 ]
                }
            },
            {
                "patchline": {
                    "destination": [ "obj-30", 0 ],
                    "source": [ "obj-28", 0 ]
                }
            },
            {
                "patchline": {
                    "destination": [ "obj-31", 0 ],
                    "source": [ "obj-28", 1 ]
                }
            },
            {
                "patchline": {
                    "destination": [ "obj-32", 0 ],
                    "source": [ "obj-28", 2 ]
                }
            },
            {
                "patchline": {
                    "destination": [ "obj-33", 0 ],
                    "source": [ "obj-28", 3 ]
                }
            },
            {
                "patchline": {
                    "destination": [ "obj-42", 0 ],
                    "source": [ "obj-28", 4 ]
                }
            },
            {
                "patchline": {
                    "destination": [ "obj-23", 1 ],
                    "order": 2,
                    "source": [ "obj-3", 0 ]
                }
            },
            {
                "patchline": {
                    "destination": [ "obj-41", 1 ],
                    "order": 1,
                    "source": [ "obj-3", 0 ]
                }
            },
            {
                "patchline": {
                    "destination": [ "obj-9", 0 ],
                    "hidden": 1,
                    "order": 0,
                    "source": [ "obj-3", 0 ]
                }
            },
            {
                "patchline": {
                    "destination": [ "obj-1", 0 ],
                    "source": [ "obj-5", 0 ]
                }
            },
            {
                "patchline": {
                    "destination": [ "obj-19", 0 ],
                    "source": [ "obj-6", 0 ]
                }
            },
            {
                "patchline": {
                    "destination": [ "obj-6", 0 ],
                    "source": [ "obj-8", 0 ]
                }
            }
        ],
        "autosave": 0
    }
}